<svg xmlns="http://www.w3.org/2000/svg" version="1.1" xmlns:xlink="http://www.w3.org/1999/xlink" xmlns:svgjs="http://svgjs.dev/svgjs" width="1920" height="950" preserveAspectRatio="none" viewBox="0 0 1920 950"><g mask="url(&quot;#SvgjsMask1037&quot;)" fill="none"><rect width="1920" height="950" x="0" y="0" fill="rgba(196, 197, 198, 1)"></rect><path d="M 0,184 C 76.8,198.4 230.4,249 384,256 C 537.6,263 614.4,183 768,219 C 921.6,255 998.4,461.4 1152,436 C 1305.6,410.6 1382.4,115.2 1536,92 C 1689.6,68.8 1843.2,274.4 1920,320L1920 950L0 950z" fill="rgba(255, 255, 255, 1)"></path><path d="M 0,616 C 128,668 384,864.4 640,876 C 896,887.6 1024,688 1280,674 C 1536,660 1792,779.6 1920,806L1920 950L0 950z" fill="rgba(198, 198, 198, 1)"></path></g><defs><mask id="SvgjsMask1037"><rect width="1920" height="950" fill="#ffffff"></rect></mask></defs></svg>